<?xml version="1.0" encoding="UTF-8"?>
<!DOCTYPE svg PUBLIC "-//W3C//DTD SVG 1.1//EN" "http://www.w3.org/Graphics/SVG/1.1/DTD/svg11.dtd">
<svg xmlns="http://www.w3.org/2000/svg" version="1.1" width="320px" height="320px" style="shape-rendering:geometricPrecision; text-rendering:geometricPrecision; image-rendering:optimizeQuality; fill-rule:evenodd; clip-rule:evenodd" xmlns:xlink="http://www.w3.org/1999/xlink">
<g><path style="opacity:0.983" fill="#77e5db" d="M 253.5,32.5 C 270.171,35.7929 286.671,39.7929 303,44.5C 303.667,120.833 303.667,197.167 303,273.5C 286.675,278.22 270.175,282.22 253.5,285.5C 253.5,201.167 253.5,116.833 253.5,32.5 Z"/></g>
<g><path style="opacity:1" fill="#3159b3" d="M 15.5,45.5 C 32.2433,49.1858 48.91,53.1858 65.5,57.5C 65.5,125.167 65.5,192.833 65.5,260.5C 48.91,264.814 32.2433,268.814 15.5,272.5C 15.5,196.833 15.5,121.167 15.5,45.5 Z"/></g>
<g><path style="opacity:0.971" fill="#00c7d1" d="M 222.5,112.5 C 223.5,112.5 224.5,112.5 225.5,112.5C 225.5,157.5 225.5,202.5 225.5,247.5C 208.761,243.482 192.094,239.148 175.5,234.5C 174.167,198.167 174.167,161.833 175.5,125.5C 191.322,121.297 206.989,116.964 222.5,112.5 Z"/></g>
<g><path style="opacity:0.957" fill="#3b8bfe" d="M 93.5,144.5 C 110.393,148.932 127.227,153.598 144,158.5C 144.667,194.5 144.667,230.5 144,266.5C 127.405,271.691 110.571,276.024 93.5,279.5C 93.5,234.5 93.5,189.5 93.5,144.5 Z"/></g>
</svg>
