<svg version="1.1" id="Layer_1" xmlns="http://www.w3.org/2000/svg" xmlns:xlink="http://www.w3.org/1999/xlink" x="0px" y="0px"
	 width="100%" viewBox="0 0 298 294" enable-background="new 0 0 298 294" xml:space="preserve">
<path fill="#FFFFFF" opacity="1.000000" stroke="none" 
	d="
M1.000000,194.000000 
	C1.000000,129.727097 1.000000,65.454201 1.000000,1.000000 
	C91.687477,1.000000 182.375076,1.000000 273.612793,1.205231 
	C274.314850,1.675315 274.530060,1.870407 274.874207,2.410404 
	C274.888184,4.219855 274.836548,5.614638 274.593964,7.147582 
	C274.175415,7.525156 274.057068,7.809994 273.701355,8.367311 
	C266.919830,8.616759 260.484924,8.639153 253.939789,8.512936 
	C253.526932,8.473328 253.224319,8.582331 252.905975,8.795077 
	C252.890244,8.898822 253.030869,9.054585 252.641144,9.225407 
	C252.522568,13.196345 252.793747,16.996464 253.521912,20.882816 
	C259.987091,20.923012 265.995300,20.876972 272.317261,20.905373 
	C273.384186,21.335745 274.137329,21.691679 274.937439,22.510815 
	C274.990662,28.782042 275.146820,34.595245 274.946289,40.396122 
	C274.828339,43.807816 275.930573,45.403694 279.479156,45.027153 
	C280.956055,44.870441 282.470978,44.904209 283.955322,45.020695 
	C286.964539,45.256847 288.098389,43.961193 288.045959,40.950325 
	C287.936310,34.648510 288.074951,28.342375 288.521729,22.000507 
	C292.287933,21.642000 295.643951,21.320999 299.000000,21.000000 
	C299.000000,67.020897 299.000000,113.041786 298.796417,159.614441 
	C298.336090,160.325027 298.145538,160.541962 297.553711,160.866516 
	C254.270187,160.932434 211.454071,160.937408 168.638062,161.003098 
	C166.730377,161.006027 164.823532,161.561432 162.563965,162.067368 
	C161.819595,167.487122 161.427551,172.699005 161.020462,178.183273 
	C161.003708,178.637512 161.001968,178.819366 160.991302,179.469742 
	C160.981949,215.869980 160.970474,251.801697 161.014389,287.733368 
	C161.016541,289.496216 161.502869,291.258453 161.828140,293.249939 
	C161.892548,293.478851 162.046219,293.928955 162.027679,294.196411 
	C162.006088,294.642578 162.003036,294.821289 162.000000,295.000000 
	C108.449226,295.000000 54.898457,295.000000 1.000000,295.000000 
	C1.000000,281.314392 1.000000,267.625854 1.468614,253.475891 
	C41.876133,253.014801 81.815048,253.025864 121.753899,252.979614 
	C123.507385,252.977585 125.260269,252.451141 127.265106,252.060852 
	C127.722519,251.659897 127.928276,251.367035 128.442902,250.779907 
	C128.848373,249.498703 129.029251,248.511795 129.029495,247.524857 
	C129.041031,199.963181 129.040482,152.401489 129.016342,104.839821 
	C129.015686,103.529060 128.742950,102.218430 128.645874,100.578285 
	C128.831375,99.831955 128.968109,99.415070 129.566833,99.008446 
	C171.467285,99.017067 212.905777,99.029732 254.344147,98.967026 
	C256.209808,98.964203 258.074432,98.278496 259.987915,97.675095 
	C260.036346,97.439331 260.078430,96.959824 260.331848,96.805328 
	C260.753906,96.083916 260.922546,95.516991 261.373383,94.649796 
	C261.768036,76.813316 261.868042,59.277023 262.005768,41.741028 
	C262.027710,38.948395 260.646576,37.842007 257.527893,38.008034 
	C196.638580,38.003143 136.217682,37.993370 75.796799,38.034462 
	C73.878532,38.035767 71.960632,38.560116 69.658920,39.076183 
	C69.122185,53.877045 68.969093,68.442352 68.710800,83.466568 
	C68.675209,102.610451 68.744820,121.295433 68.715233,140.442078 
	C68.505272,158.634277 68.394501,176.364822 68.191437,194.065430 
	C68.099136,194.035507 67.918900,193.963577 67.455780,193.972198 
	C44.995102,193.987198 22.997551,193.993607 1.000000,194.000000 
M41.906689,21.424314 
	C41.592262,21.342232 41.277832,21.260151 40.081146,21.026651 
	C37.379414,21.075701 34.677681,21.124750 31.456944,21.134287 
	C31.297352,21.420887 31.137760,21.707487 30.979084,21.923334 
	C30.979084,21.923334 30.912680,21.898905 30.507751,21.959757 
	C30.507751,21.959757 30.102741,22.020056 29.446930,22.551744 
	C29.293598,23.688498 29.006824,24.825180 29.006226,25.962013 
	C28.984898,66.547546 28.981808,107.133102 29.027527,147.718597 
	C29.029127,149.138702 29.553898,150.558197 30.070192,152.482834 
	C30.394970,152.609390 30.719746,152.735947 31.530718,152.983551 
	C31.692169,152.940811 31.853619,152.898056 32.901028,152.988449 
	C35.584717,152.936584 38.268406,152.884735 41.490368,152.904129 
	C41.713104,152.632034 41.935841,152.359924 42.738029,151.466476 
	C42.839676,150.479294 43.029842,149.492157 43.030216,148.504944 
	C43.045605,107.709152 43.052975,66.913353 43.006454,26.117613 
	C43.004848,24.709818 42.442741,23.302664 41.906689,21.424314 
z"/>
<path fill="#FFFFFF" opacity="1.000000" stroke="none" 
	d="
M299.000000,174.000000 
	C299.000000,214.244034 299.000000,254.488052 299.000000,295.000000 
	C273.646393,295.000000 248.291855,295.000000 222.468018,294.618042 
	C221.991180,293.471008 221.983658,292.705933 222.013870,291.695831 
	C222.051620,291.450775 222.191818,290.975128 222.445862,290.652710 
	C222.800140,288.512878 222.986588,286.695496 222.987885,284.878021 
	C223.014450,247.933670 223.019806,210.989334 223.034637,173.856522 
	C223.039871,173.668060 222.977081,173.296280 223.309296,173.229309 
	C224.090988,173.188919 224.540466,173.215485 225.322235,173.487549 
	C250.103012,173.822021 274.551514,173.911011 299.000000,174.000000 
z"/>
<path fill="#0181FF" opacity="1.000000" stroke="none" 
	d="
M1.000000,251.000000 
	C1.000000,249.933212 1.000000,248.866425 1.350022,247.364349 
	C8.670388,241.505920 15.647209,236.091095 22.608887,230.656860 
	C27.631147,226.736542 32.738487,222.915863 37.617252,218.823471 
	C43.486809,213.899994 48.938511,208.454407 55.004662,203.799896 
	C57.836887,201.626709 59.517803,199.615005 59.426514,196.045349 
	C62.236263,195.737259 64.620377,195.451309 67.262787,195.052277 
	C67.653694,194.613983 67.786293,194.288773 67.918900,193.963577 
	C67.918900,193.963577 68.099136,194.035507 68.537254,193.951828 
	C69.324371,192.244812 69.673363,190.621460 70.383774,188.959290 
	C74.764000,186.199371 78.928490,183.666016 82.754822,180.696869 
	C85.736580,178.383102 88.274887,175.502701 91.054146,172.921356 
	C92.732117,171.362854 94.445564,169.834671 96.227386,168.397385 
	C101.045670,164.510773 105.872978,160.633545 110.764404,156.839905 
	C115.907555,152.851028 119.652763,146.753494 126.972137,146.467133 
	C126.988098,156.956985 126.994507,166.978195 126.998001,177.467712 
	C126.984657,183.956955 126.974220,189.977875 126.553482,195.999084 
	C123.544441,196.809692 120.486855,197.009430 118.436943,198.550003 
	C113.237762,202.457336 108.521355,207.002274 103.554626,211.224854 
	C96.653015,217.092422 89.737167,222.944458 82.757263,228.718323 
	C75.910507,234.382034 68.894127,239.843964 62.144417,245.619095 
	C60.675468,246.875946 60.023273,249.087372 58.527935,250.894485 
	C39.040638,250.953201 20.020319,250.976608 1.000000,251.000000 
z"/>
<path fill="#0188FE" opacity="1.000000" stroke="none" 
	d="
M59.000874,196.067505 
	C59.517803,199.615005 57.836887,201.626709 55.004662,203.799896 
	C48.938511,208.454407 43.486809,213.899994 37.617252,218.823471 
	C32.738487,222.915863 27.631147,226.736542 22.608887,230.656860 
	C15.647209,236.091095 8.670388,241.505920 1.350022,246.964523 
	C1.000000,230.312439 1.000000,213.624878 1.468653,196.470932 
	C20.958496,196.025528 39.979683,196.046509 59.000874,196.067505 
z"/>
<path fill="#0183FE" opacity="1.000000" stroke="none" 
	d="
M274.890503,22.047613 
	C274.137329,21.691679 273.384186,21.335745 272.382355,20.570541 
	C275.346649,17.811554 278.656891,15.581422 281.740326,13.072524 
	C284.019501,11.218053 286.003174,9.000395 288.276581,6.932633 
	C288.434692,6.920731 288.747528,6.868563 288.657349,7.092445 
	C288.666840,7.668322 288.897888,7.869926 289.479584,8.256537 
	C292.799225,8.727957 295.899628,8.863978 299.000000,9.000000 
	C299.000000,12.692909 299.000000,16.385818 299.000000,20.539364 
	C295.643951,21.320999 292.287933,21.642000 288.115814,22.071424 
	C286.867889,23.487244 286.122223,24.780752 286.063660,26.104671 
	C285.895020,29.916235 285.992584,33.740116 286.007385,37.559078 
	C286.018280,40.366577 286.651367,43.142902 282.019928,43.129322 
	C277.467255,43.115978 276.781403,40.937454 276.960449,37.230251 
	C277.144440,33.420139 277.174561,29.581753 276.903107,25.782095 
	C276.811249,24.495901 275.593658,23.290134 274.890503,22.047613 
z"/>
<path fill="#0187FE" opacity="1.000000" stroke="none" 
	d="
M288.118469,6.944534 
	C286.003174,9.000395 284.019501,11.218053 281.740326,13.072524 
	C278.656891,15.581422 275.346649,17.811554 272.068604,20.496101 
	C265.995300,20.876972 259.987091,20.923012 253.509766,20.438831 
	C253.055756,16.631401 253.070877,13.354188 253.548737,10.056103 
	C259.736084,10.024659 265.465027,10.130055 271.181946,9.914978 
	C272.472565,9.866423 273.721191,8.701982 274.964722,7.785546 
	C274.888489,7.349726 274.836670,7.179574 274.784882,7.009422 
	C274.836548,5.614638 274.888184,4.219855 274.954590,2.167703 
	C274.979584,1.340224 274.989777,1.170112 275.000000,1.000000 
	C279.024536,1.000000 283.049103,1.000000 287.667114,1.409160 
	C288.213196,3.527057 288.165833,5.235795 288.118469,6.944534 
z"/>
<path fill="#016CFF" opacity="1.000000" stroke="none" 
	d="
M299.000000,163.000000 
	C299.000000,165.700623 299.000000,168.401260 298.531342,171.550079 
	C283.708557,171.987946 269.354431,171.977600 255.037354,171.622253 
	C257.049225,168.539108 259.023987,165.800949 261.467255,163.047318 
	C274.290497,163.021225 286.645233,163.010620 299.000000,163.000000 
z"/>
<path fill="#8CC8FF" opacity="1.000000" stroke="none" 
	d="
M162.916306,161.859497 
	C164.823532,161.561432 166.730377,161.006027 168.638062,161.003098 
	C211.454071,160.937408 254.270187,160.932434 297.794830,160.931305 
	C298.503387,160.946594 299.000000,161.000000 299.000000,161.000000 
	C299.000000,161.000000 299.000000,161.500000 298.531372,161.744385 
	C284.441101,161.992462 270.819489,161.980103 257.197906,162.003098 
	C226.136719,162.055557 195.075562,162.125336 163.740204,162.104523 
	C163.282776,161.967148 163.099548,161.913315 162.916306,161.859497 
z"/>
<path fill="#166CDC" opacity="1.000000" stroke="none" 
	d="
M164.014389,162.188080 
	C195.075562,162.125336 226.136719,162.055557 257.197906,162.003098 
	C270.819489,161.980103 284.441101,161.992462 298.531372,161.994385 
	C299.000000,162.000000 299.000000,162.500000 299.000000,162.750000 
	C286.645233,163.010620 274.290497,163.021225 260.998993,163.028625 
	C244.708374,163.038284 229.354492,163.051178 213.532166,163.045059 
	C196.714432,163.020111 180.365143,163.014191 164.013916,162.803223 
	C164.011978,162.598175 164.014389,162.188080 164.014389,162.188080 
z"/>
<path fill="#C9FBFF" opacity="1.000000" stroke="none" 
	d="
M127.013443,252.168976 
	C125.260269,252.451141 123.507385,252.977585 121.753899,252.979614 
	C81.815048,253.025864 41.876133,253.014801 1.468614,253.007233 
	C1.000000,253.000000 1.000000,252.500000 1.468657,252.250763 
	C23.961256,251.947968 45.985199,251.894424 68.473602,251.902618 
	C88.296516,252.032578 107.654984,252.100784 127.013443,252.168976 
z"/>
<path fill="#FFFFFF" opacity="1.000000" stroke="none" 
	d="
M288.276581,6.932632 
	C288.165833,5.235795 288.213196,3.527057 288.130310,1.409160 
	C288.000000,1.000000 288.500000,1.000000 288.828918,1.175784 
	C289.438538,1.234379 289.719269,1.117189 290.000000,1.000000 
	C292.911011,1.000000 295.822021,1.000000 299.000000,1.000000 
	C299.000000,3.333536 299.000000,5.672035 299.000000,8.505266 
	C295.899628,8.863978 292.799225,8.727957 289.607910,8.153460 
	C289.260468,7.432842 289.003998,7.150701 288.747528,6.868561 
	C288.747528,6.868563 288.434692,6.920731 288.276581,6.932632 
z"/>
<path fill="#166CDC" opacity="1.000000" stroke="none" 
	d="
M255.000305,171.967255 
	C269.354431,171.977600 283.708557,171.987946 298.531342,171.999146 
	C299.000000,172.000000 299.000000,172.500000 298.531342,172.753113 
	C273.705109,173.084824 249.347519,173.163437 224.989944,173.242050 
	C224.540466,173.215485 224.090988,173.188919 223.329987,173.113770 
	C223.018478,173.065201 223.061417,172.834305 223.372070,172.566605 
	C234.121918,172.188354 244.561111,172.077805 255.000305,171.967255 
z"/>
<path fill="#CCEDFF" opacity="1.000000" stroke="none" 
	d="
M225.322235,173.487549 
	C249.347519,173.163437 273.705109,173.084824 298.531342,173.003113 
	C299.000000,173.000000 299.000000,173.500000 299.000000,173.750000 
	C274.551514,173.911011 250.103012,173.822021 225.322235,173.487549 
z"/>
<path fill="#2A7ACB" opacity="1.000000" stroke="none" 
	d="
M68.009140,251.840881 
	C45.985199,251.894424 23.961256,251.947968 1.468657,252.000763 
	C1.000000,252.000000 1.000000,251.500000 1.000000,251.250000 
	C20.020319,250.976608 39.040638,250.953201 58.977066,250.936737 
	C62.594841,250.961823 65.296509,250.979965 67.999847,251.208817 
	C68.001534,251.419525 68.009140,251.840866 68.009140,251.840881 
z"/>
<path fill="#E3FFFF" opacity="1.000000" stroke="none" 
	d="
M67.455772,193.972198 
	C67.786293,194.288773 67.653694,194.613983 66.798203,194.985474 
	C44.383541,195.021164 22.691771,195.010574 1.000000,195.000000 
	C1.000000,195.000000 1.000000,194.500000 1.000000,194.250000 
	C22.997551,193.993607 44.995102,193.987198 67.455772,193.972198 
z"/>
<path fill="#3494E6" opacity="1.000000" stroke="none" 
	d="
M1.000000,195.250000 
	C22.691771,195.010574 44.383541,195.021164 66.539902,195.098572 
	C64.620377,195.451309 62.236263,195.737259 59.426514,196.045349 
	C39.979683,196.046509 20.958496,196.025528 1.468653,196.002274 
	C1.000000,196.000000 1.000000,195.500000 1.000000,195.250000 
z"/>
<path fill="#B9EAFF" opacity="1.000000" stroke="none" 
	d="
M162.468658,295.000000 
	C162.003036,294.821289 162.006088,294.642578 162.492661,294.215393 
	C182.278702,293.936951 201.581207,293.906982 220.928467,294.156158 
	C220.982132,294.623535 220.991074,294.811768 221.000000,295.000000 
	C201.645767,295.000000 182.291550,295.000000 162.468658,295.000000 
z"/>
<path fill="#E3FFFF" opacity="1.000000" stroke="none" 
	d="
M221.250000,295.000000 
	C220.991074,294.811768 220.982132,294.623535 220.956573,293.885132 
	C220.896820,293.158813 220.853714,292.982666 220.880875,292.652100 
	C220.951126,292.497650 221.034698,292.164886 221.265945,292.091614 
	C221.497192,292.018372 221.976120,291.940887 221.976120,291.940887 
	C221.983658,292.705933 221.991180,293.471008 221.999359,294.618042 
	C222.000000,295.000000 221.500000,295.000000 221.250000,295.000000 
z"/>
<path fill="#EAFFFF" opacity="1.000000" stroke="none" 
	d="
M289.750000,1.000000 
	C289.719269,1.117189 289.438538,1.234379 289.078918,1.175784 
	C289.000000,1.000000 289.500000,1.000000 289.750000,1.000000 
z"/>
<path fill="#EAFFFF" opacity="1.000000" stroke="none" 
	d="
M274.750000,1.000000 
	C274.989777,1.170112 274.979584,1.340224 274.888947,1.753037 
	C274.530060,1.870407 274.314850,1.675315 274.081421,1.205231 
	C274.000000,1.000000 274.500000,1.000000 274.750000,1.000000 
z"/>
<path fill="#F2FFFF" opacity="1.000000" stroke="none" 
	d="
M299.000000,160.750000 
	C299.000000,161.000000 298.503387,160.946594 298.262268,160.881805 
	C298.145538,160.541962 298.336090,160.325027 298.796417,160.083099 
	C299.000000,160.000000 299.000000,160.500000 299.000000,160.750000 
z"/>
<path fill="#017EFF" opacity="1.000000" stroke="none" 
	d="
M261.091187,94.950073 
	C260.922546,95.516991 260.753906,96.083916 259.856018,96.798111 
	C246.750381,96.912094 234.374008,96.878807 221.999069,96.473328 
	C222.841095,94.653275 223.451233,92.979149 224.587631,91.821678 
	C225.706146,90.682419 227.510468,90.246483 228.752151,89.193382 
	C238.513458,80.914543 248.203049,72.551155 257.960052,64.267204 
	C258.379700,63.910915 259.242706,64.076820 259.931458,64.467361 
	C259.972778,68.413048 259.905609,71.893066 260.007202,75.368156 
	C260.199188,81.933975 260.488159,88.496948 260.845642,95.098007 
	C260.954529,95.134903 261.091187,94.950073 261.091187,94.950073 
z"/>
<path fill="#0193FF" opacity="1.000000" stroke="none" 
	d="
M40.952095,152.832886 
	C38.268406,152.884735 35.584717,152.936584 32.453339,152.474426 
	C31.703720,148.306717 31.401793,144.653046 31.088589,140.666382 
	C31.085510,139.889297 31.093710,139.445206 31.358574,138.730011 
	C31.445200,136.305832 31.275160,134.152756 31.086845,131.532135 
	C31.113424,125.375854 31.158276,119.687103 31.561171,113.991463 
	C34.924454,112.988945 37.929695,111.993309 40.951241,111.466194 
	C40.962395,125.567429 40.957245,139.200150 40.952095,152.832886 
z"/>
<path fill="#01A4FF" opacity="1.000000" stroke="none" 
	d="
M31.975948,21.173798 
	C34.677681,21.124750 37.379414,21.075701 40.528667,21.558998 
	C40.961563,29.060612 40.946941,36.029881 40.570850,43.004150 
	C37.477489,44.339893 34.745602,45.670631 32.008560,46.640553 
	C31.707996,45.190765 31.412586,44.101795 31.096500,42.544014 
	C31.021442,35.349766 30.967060,28.624336 30.912680,21.898905 
	C30.912680,21.898905 30.979084,21.923334 31.189377,21.882961 
	C31.665575,21.683266 31.857668,21.460335 31.975948,21.173798 
z"/>
<path fill="#E3FFFF" opacity="1.000000" stroke="none" 
	d="
M70.042557,38.840630 
	C71.960632,38.560116 73.878532,38.035767 75.796799,38.034462 
	C136.217682,37.993370 196.638580,38.003143 257.530212,38.215118 
	C258.000916,38.425056 258.005341,38.839485 257.540100,38.903248 
	C232.051147,39.033108 207.027420,39.099205 181.539276,39.097164 
	C172.600739,39.018974 164.126572,38.986378 155.652512,39.002983 
	C127.076271,39.058994 98.500069,39.132484 69.926910,39.100815 
	C69.929955,39.002335 70.042557,38.840630 70.042557,38.840630 
z"/>
<path fill="#72B7FF" opacity="1.000000" stroke="none" 
	d="
M128.597092,100.907738 
	C128.742950,102.218430 129.015686,103.529060 129.016342,104.839821 
	C129.040482,152.401489 129.041031,199.963181 129.029495,247.524857 
	C129.029251,248.511795 128.848373,249.498703 128.372925,250.511063 
	C127.954689,250.355301 127.915306,250.174088 127.926941,249.527054 
	C127.938690,225.044632 127.899414,201.028030 127.910355,176.544525 
	C127.967751,152.805420 127.961533,129.533157 128.008606,106.261024 
	C128.012222,104.476212 128.392105,102.692146 128.597092,100.907738 
z"/>
<path fill="#1D65CB" opacity="1.000000" stroke="none" 
	d="
M220.810623,292.806519 
	C220.853714,292.982666 220.896820,293.158813 220.911835,293.606018 
	C201.581207,293.906982 182.278702,293.936951 162.511200,293.947937 
	C162.046219,293.928955 161.892548,293.478851 161.922989,292.788147 
	C162.027573,263.069824 162.101700,234.042191 162.379303,205.011230 
	C162.582764,205.007889 162.989731,205.003662 163.001740,205.378510 
	C163.047775,206.502640 163.081787,207.251923 163.085922,208.468842 
	C163.075317,219.957779 163.094574,230.979111 163.079681,242.468140 
	C163.071945,251.623810 163.098373,260.311768 163.088135,269.463470 
	C163.075256,274.284302 163.099045,278.641418 163.092987,283.455078 
	C163.050858,285.061340 163.181183,286.233887 163.001404,287.356781 
	C162.261520,291.978760 164.244171,293.392578 168.731277,293.047394 
	C173.795227,292.657867 178.907074,292.890930 184.465515,292.888062 
	C196.892166,292.884125 208.851395,292.845306 220.810623,292.806519 
z"/>
<path fill="#4CA0D9" opacity="1.000000" stroke="none" 
	d="
M30.710217,21.929331 
	C30.967060,28.624336 31.021442,35.349766 31.056278,42.969223 
	C31.064316,45.574253 31.091896,47.285267 31.097607,49.464569 
	C31.087503,57.956917 31.099272,65.980972 31.071939,74.448082 
	C31.063276,77.276924 31.093716,79.662727 31.100348,82.482315 
	C31.087509,84.944756 31.098482,86.973404 31.070431,89.437782 
	C31.057079,91.914978 31.082752,93.956436 31.089989,96.465538 
	C31.115412,102.621567 31.159267,108.309959 31.203125,113.998352 
	C31.158276,119.687103 31.113424,125.375854 31.047535,131.968079 
	C31.051634,134.914749 31.076771,136.957932 31.101910,139.001114 
	C31.093710,139.445206 31.085510,139.889297 31.050066,141.123383 
	C31.030052,145.563080 31.037287,149.212784 31.044521,152.862503 
	C30.719746,152.735947 30.394970,152.609390 30.022259,151.768478 
	C30.017130,108.042770 30.059937,65.031410 30.102741,22.020056 
	C30.102741,22.020056 30.507751,21.959757 30.710217,21.929331 
z"/>
<path fill="#CFFFFF" opacity="1.000000" stroke="none" 
	d="
M259.939514,97.910851 
	C258.074432,98.278496 256.209808,98.964203 254.344147,98.967026 
	C212.905777,99.029732 171.467285,99.017067 129.429611,99.051926 
	C128.830399,99.085144 128.543396,99.111816 128.707550,98.875191 
	C128.918091,98.452431 128.964447,98.266304 129.247833,98.013168 
	C129.484879,97.946175 129.956573,97.805061 130.421967,97.883888 
	C149.260269,97.919518 167.633148,97.876328 186.470306,97.897461 
	C211.269547,97.944809 235.604523,97.927834 259.939514,97.910851 
z"/>
<path fill="#8BDCFF" opacity="1.000000" stroke="none" 
	d="
M42.141876,21.895210 
	C42.442741,23.302664 43.004848,24.709818 43.006454,26.117613 
	C43.052975,66.913353 43.045605,107.709152 43.030216,148.504944 
	C43.029842,149.492157 42.839676,150.479294 42.392811,151.305878 
	C41.983150,128.433472 41.918709,105.721687 41.912415,82.543358 
	C42.027668,62.016285 42.084770,41.955746 42.141876,21.895210 
z"/>
<path fill="#DAFFFF" opacity="1.000000" stroke="none" 
	d="
M29.774836,22.285900 
	C30.059937,65.031410 30.017130,108.042770 29.904575,151.516052 
	C29.553898,150.558197 29.029127,149.138702 29.027527,147.718597 
	C28.981808,107.133102 28.984898,66.547546 29.006226,25.962013 
	C29.006824,24.825180 29.293598,23.688498 29.774836,22.285900 
z"/>
<path fill="#B9EAFF" opacity="1.000000" stroke="none" 
	d="
M162.175827,205.014572 
	C162.101700,234.042191 162.027573,263.069824 161.858582,292.559204 
	C161.502869,291.258453 161.016541,289.496216 161.014389,287.733368 
	C160.970474,251.801697 160.981949,215.869980 161.204086,179.466370 
	C161.425827,178.994461 161.849884,178.957596 161.908936,179.425537 
	C162.037247,188.267181 162.106537,196.640884 162.175827,205.014572 
z"/>
<path fill="#0D7DEE" opacity="1.000000" stroke="none" 
	d="
M274.937439,22.510815 
	C275.593658,23.290134 276.811249,24.495901 276.903107,25.782095 
	C277.174561,29.581753 277.144440,33.420139 276.960449,37.230251 
	C276.781403,40.937454 277.467255,43.115978 282.019928,43.129322 
	C286.651367,43.142902 286.018280,40.366577 286.007385,37.559078 
	C285.992584,33.740116 285.895020,29.916235 286.063660,26.104671 
	C286.122223,24.780752 286.867889,23.487244 287.705658,22.108932 
	C288.074951,28.342375 287.936310,34.648510 288.045959,40.950325 
	C288.098389,43.961193 286.964539,45.256847 283.955322,45.020695 
	C282.470978,44.904209 280.956055,44.870441 279.479156,45.027153 
	C275.930573,45.403694 274.828339,43.807816 274.946289,40.396122 
	C275.146820,34.595245 274.990662,28.782042 274.937439,22.510815 
z"/>
<path fill="#1481E6" opacity="1.000000" stroke="none" 
	d="
M128.645874,100.578285 
	C128.392105,102.692146 128.012222,104.476212 128.008606,106.261024 
	C127.961533,129.533157 127.967751,152.805420 127.695923,176.540436 
	C127.431274,177.003235 127.000916,176.999390 127.000916,176.999390 
	C126.994507,166.978195 126.988098,156.956985 126.982857,145.998718 
	C126.976196,132.374298 126.968376,119.686943 126.972153,106.575584 
	C127.503639,103.804985 128.023514,101.458405 128.543396,99.111816 
	C128.543396,99.111816 128.830399,99.085144 128.967621,99.041664 
	C128.968109,99.415070 128.831375,99.831955 128.645874,100.578285 
z"/>
<path fill="#2A7ACB" opacity="1.000000" stroke="none" 
	d="
M259.987915,97.675095 
	C235.604523,97.927834 211.269547,97.944809 186.468414,97.689270 
	C186.002289,97.416756 186.000000,97.000305 186.468536,96.987869 
	C198.623917,96.932129 210.310791,96.888817 221.997650,96.845512 
	C234.374008,96.878807 246.750381,96.912094 259.602600,96.952606 
	C260.078430,96.959824 260.036346,97.439331 259.987915,97.675095 
z"/>
<path fill="#1B8EE0" opacity="1.000000" stroke="none" 
	d="
M41.854263,83.009895 
	C41.918709,105.721687 41.983150,128.433472 42.103088,151.616547 
	C41.935841,152.359924 41.713104,152.632034 41.221230,152.868500 
	C40.957245,139.200150 40.962395,125.567429 40.970207,110.998055 
	C40.983128,101.041138 40.993393,92.020874 41.216320,83.002007 
	C41.428982,83.003403 41.854263,83.009895 41.854263,83.009895 
z"/>
<path fill="#EAFFFF" opacity="1.000000" stroke="none" 
	d="
M258.005341,38.839485 
	C258.005341,38.839485 258.000916,38.425056 257.998627,38.217972 
	C260.646576,37.842007 262.027710,38.948395 262.005768,41.741028 
	C261.868042,59.277023 261.768036,76.813316 261.373383,94.649796 
	C261.091187,94.950073 260.954529,95.134903 260.951355,94.635757 
	C260.966431,77.769028 261.006927,61.401390 260.962494,45.033985 
	C260.958771,43.662601 260.383453,42.292774 260.041382,40.925919 
	C260.009033,40.929615 260.002960,40.994415 259.950500,40.735489 
	C259.603119,40.311401 259.308228,40.146244 259.039612,39.985855 
	C259.065887,39.990627 259.080658,39.939301 258.975616,39.693203 
	C258.582153,39.244568 258.293762,39.042027 258.005341,38.839485 
z"/>
<path fill="#1D98E2" opacity="1.000000" stroke="none" 
	d="
M41.912415,82.543358 
	C41.854263,83.009895 41.428982,83.003403 41.210403,82.601501 
	C40.973377,81.131805 40.954929,80.064011 40.954849,78.528214 
	C40.959587,66.373184 40.945953,54.686169 40.932320,42.999149 
	C40.946941,36.029881 40.961563,29.060612 40.969795,21.634706 
	C41.277832,21.260151 41.592262,21.342232 42.024284,21.659763 
	C42.084770,41.955746 42.027668,62.016285 41.912415,82.543358 
z"/>
<path fill="#2173CE" opacity="1.000000" stroke="none" 
	d="
M127.875916,249.992874 
	C127.915306,250.174088 127.954689,250.355301 128.064056,250.805344 
	C127.928276,251.367035 127.722519,251.659897 127.265106,252.060867 
	C107.654984,252.100784 88.296516,252.032578 68.473602,251.902618 
	C68.009140,251.840866 68.001534,251.419525 68.468582,251.196121 
	C86.557434,250.969345 104.179352,250.992889 121.800858,250.920303 
	C123.532860,250.913177 125.262421,250.315796 127.213806,249.995148 
	C127.434509,249.997940 127.875916,249.992874 127.875916,249.992874 
z"/>
<path fill="#2173CE" opacity="1.000000" stroke="none" 
	d="
M162.379303,205.011230 
	C162.106537,196.640884 162.037247,188.267181 161.926102,179.168488 
	C161.601318,178.265961 161.318405,178.088425 161.035492,177.910889 
	C161.427551,172.699005 161.819595,167.487122 162.563965,162.067368 
	C163.099548,161.913315 163.282776,161.967148 163.740204,162.104523 
	C164.014389,162.188080 164.011978,162.598175 163.721909,163.100632 
	C163.284470,177.403275 163.137100,191.203476 162.989746,205.003662 
	C162.989731,205.003662 162.582764,205.007889 162.379303,205.011230 
z"/>
<path fill="#1481E6" opacity="1.000000" stroke="none" 
	d="
M70.022354,188.998123 
	C69.673363,190.621460 69.324371,192.244812 68.629547,193.981750 
	C68.394501,176.364822 68.505272,158.634277 69.004700,140.448700 
	C69.586189,139.993210 69.779015,139.992783 69.982315,140.451202 
	C70.002365,144.273376 70.011932,147.636734 70.014877,151.468689 
	C70.012955,164.290909 70.017654,176.644516 70.022354,188.998123 
z"/>
<path fill="#1B8EE0" opacity="1.000000" stroke="none" 
	d="
M69.971840,139.992355 
	C69.779015,139.992783 69.586189,139.993210 69.103897,139.987030 
	C68.744820,121.295433 68.675209,102.610451 69.002533,83.465408 
	C69.593704,83.007156 69.787949,83.008957 69.986290,83.474197 
	C69.997940,88.291496 70.005493,92.645363 70.006073,97.467628 
	C70.004387,104.290291 70.009682,110.644547 70.007622,117.467445 
	C69.990791,125.288177 69.981316,132.640274 69.971840,139.992355 
z"/>
<path fill="#1396EB" opacity="1.000000" stroke="none" 
	d="
M69.982201,83.010765 
	C69.787949,83.008957 69.593704,83.007156 69.107727,83.006500 
	C68.969093,68.442352 69.122185,53.877045 69.658920,39.076183 
	C70.042557,38.840630 69.929955,39.002335 69.950455,39.321560 
	C69.970947,39.640785 70.010910,40.082993 70.010788,40.542473 
	C70.015038,51.667461 70.019402,62.332970 70.017731,73.452766 
	C70.001854,76.941628 69.992027,79.976196 69.982201,83.010765 
z"/>
<path fill="#1481E6" opacity="1.000000" stroke="none" 
	d="
M274.989166,8.051214 
	C273.721191,8.701982 272.472565,9.866423 271.181946,9.914978 
	C265.465027,10.130055 259.736084,10.024659 253.527618,9.800488 
	C253.039474,9.395359 253.035172,9.224972 253.030869,9.054585 
	C253.030869,9.054585 252.890244,8.898822 253.190247,8.871833 
	C253.676834,8.783745 253.863419,8.722645 254.050018,8.661546 
	C260.484924,8.639153 266.919830,8.616759 273.942078,8.402336 
	C274.529388,8.210307 274.989166,8.051215 274.989166,8.051214 
z"/>
<path fill="#1E82D9" opacity="1.000000" stroke="none" 
	d="
M252.641144,9.225407 
	C253.035172,9.224972 253.039474,9.395359 253.064880,9.821362 
	C253.070877,13.354188 253.055756,16.631401 253.052765,20.352596 
	C252.793747,16.996464 252.522568,13.196345 252.641144,9.225407 
z"/>
<path fill="#1396EB" opacity="1.000000" stroke="none" 
	d="
M31.287621,152.923035 
	C31.037287,149.212784 31.030052,145.563080 31.061342,141.456360 
	C31.401793,144.653046 31.703720,148.306717 32.010357,152.407867 
	C31.853619,152.898056 31.692169,152.940811 31.287621,152.923035 
z"/>
<path fill="#EAFFFF" opacity="1.000000" stroke="none" 
	d="
M274.964722,7.785546 
	C274.989166,8.051215 274.529388,8.210307 274.288696,8.175282 
	C274.057068,7.809994 274.175415,7.525156 274.593964,7.147582 
	C274.836670,7.179574 274.888489,7.349726 274.964722,7.785546 
z"/>
<path fill="#B9EAFF" opacity="1.000000" stroke="none" 
	d="
M253.939789,8.512936 
	C253.863419,8.722645 253.676834,8.783745 253.205963,8.768088 
	C253.224319,8.582331 253.526932,8.473328 253.939789,8.512936 
z"/>
<path fill="#1396EB" opacity="1.000000" stroke="none" 
	d="
M31.716446,21.154041 
	C31.857668,21.460335 31.665575,21.683266 31.188919,21.918339 
	C31.137760,21.707487 31.297352,21.420887 31.716446,21.154041 
z"/>
<path fill="#F2FFFF" opacity="1.000000" stroke="none" 
	d="
M161.020462,178.183273 
	C161.318405,178.088425 161.601318,178.265961 161.867065,178.700546 
	C161.849884,178.957596 161.425827,178.994461 161.213043,178.997833 
	C161.001968,178.819366 161.003708,178.637512 161.020462,178.183273 
z"/>
<path fill="#5286DA" opacity="1.000000" stroke="none" 
	d="
M222.013870,291.695831 
	C221.976120,291.940887 221.497192,292.018372 221.218994,291.795929 
	C220.915741,291.376007 220.890686,291.178558 220.913666,290.517151 
	C220.941208,270.374359 220.920715,250.695541 220.937088,230.547562 
	C220.968765,211.383057 220.963577,192.687698 220.977417,173.989899 
	C220.996445,173.987473 220.982407,173.951752 221.178070,173.964203 
	C221.373749,173.976639 221.763596,174.018906 221.879929,173.988205 
	C221.996262,173.957504 222.236328,173.973831 222.139313,174.435059 
	C222.024231,188.182663 221.972687,201.469101 221.995285,214.755402 
	C222.038498,240.162018 222.123917,265.568573 222.191818,290.975128 
	C222.191818,290.975128 222.051620,291.450775 222.013870,291.695831 
z"/>
<path fill="#E3FFFF" opacity="1.000000" stroke="none" 
	d="
M222.445862,290.652710 
	C222.123917,265.568573 222.038498,240.162018 221.995285,214.755402 
	C221.972687,201.469101 222.024231,188.182663 222.337341,174.453171 
	C222.632416,174.010056 223.029404,174.044983 223.029404,174.044983 
	C223.019806,210.989334 223.014450,247.933670 222.987885,284.878021 
	C222.986588,286.695496 222.800140,288.512878 222.445862,290.652710 
z"/>
<path fill="#CCEDFF" opacity="1.000000" stroke="none" 
	d="
M223.034637,173.856522 
	C223.029404,174.044983 222.632416,174.010056 222.434372,173.991943 
	C222.236328,173.973831 221.996262,173.957504 221.980087,173.742432 
	C222.017670,173.358749 222.071442,173.190140 222.364716,173.002045 
	C222.604233,172.982574 223.061417,172.834305 223.061417,172.834305 
	C223.061417,172.834305 223.018478,173.065201 222.997772,173.180740 
	C222.977081,173.296280 223.039871,173.668060 223.034637,173.856522 
z"/>
<path fill="#0188FF" opacity="1.000000" stroke="none" 
	d="
M70.383774,188.959290 
	C70.017654,176.644516 70.012955,164.290909 70.365540,151.433258 
	C72.266579,150.000854 73.959503,149.252640 75.331306,148.116669 
	C91.353966,134.848511 107.313583,121.504204 123.353531,108.257088 
	C124.274124,107.496780 125.745506,107.403374 126.960548,106.999596 
	C126.968376,119.686943 126.976196,132.374298 126.973305,145.530060 
	C119.652763,146.753494 115.907555,152.851028 110.764404,156.839905 
	C105.872978,160.633545 101.045670,164.510773 96.227386,168.397385 
	C94.445564,169.834671 92.732117,171.362854 91.054146,172.921356 
	C88.274887,175.502701 85.736580,178.383102 82.754822,180.696869 
	C78.928490,183.666016 74.764000,186.199371 70.383774,188.959290 
z"/>
<path fill="#0179FF" opacity="1.000000" stroke="none" 
	d="
M126.993111,249.992371 
	C125.262421,250.315796 123.532860,250.913177 121.800858,250.920303 
	C104.179352,250.992889 86.557434,250.969345 68.466904,250.985413 
	C65.296509,250.979965 62.594841,250.961823 59.444046,250.901413 
	C60.023273,249.087372 60.675468,246.875946 62.144417,245.619095 
	C68.894127,239.843964 75.910507,234.382034 82.757263,228.718323 
	C89.737167,222.944458 96.653015,217.092422 103.554626,211.224854 
	C108.521355,207.002274 113.237762,202.457336 118.436943,198.550003 
	C120.486855,197.009430 123.544441,196.809692 126.564751,196.467804 
	C126.988586,214.621582 126.990845,232.306976 126.993111,249.992371 
z"/>
<path fill="#1375E4" opacity="1.000000" stroke="none" 
	d="
M127.213806,249.995148 
	C126.990845,232.306976 126.988586,214.621582 126.975052,196.467499 
	C126.974220,189.977875 126.984657,183.956955 126.998001,177.467712 
	C127.000916,176.999390 127.431274,177.003235 127.645706,177.007324 
	C127.899414,201.028030 127.938690,225.044632 127.926941,249.527054 
	C127.875916,249.992874 127.434509,249.997940 127.213806,249.995148 
z"/>
<path fill="#EAFFFF" opacity="1.000000" stroke="none" 
	d="
M288.657349,7.092443 
	C289.003998,7.150701 289.260468,7.432842 289.388611,7.818062 
	C288.897888,7.869926 288.666840,7.668322 288.657349,7.092443 
z"/>
<path fill="#0172FF" opacity="1.000000" stroke="none" 
	d="
M223.372070,172.566605 
	C223.061417,172.834305 222.604233,172.982574 222.118759,173.080261 
	C221.416321,173.435898 221.199371,173.693817 220.982407,173.951752 
	C220.982407,173.951752 220.996445,173.987473 220.690018,174.290894 
	C220.250824,183.062668 220.118057,191.531036 219.633240,200.034668 
	C217.852997,200.883209 216.275452,201.513809 215.020996,202.539581 
	C207.265549,208.881180 199.594391,215.325699 191.872131,221.708099 
	C186.135681,226.449234 180.536560,231.383148 174.542465,235.775696 
	C171.074661,238.316940 166.945404,239.955582 163.113846,242.000443 
	C163.094574,230.979111 163.075317,219.957779 163.450348,208.466949 
	C165.011154,207.532272 166.369766,207.309174 167.311859,206.561340 
	C172.206619,202.675888 176.979568,198.637543 181.824112,194.688232 
	C190.830078,187.346497 199.682693,179.798782 208.962250,172.819595 
	C212.509140,170.151962 214.757095,167.588165 214.000610,163.064087 
	C229.354492,163.051178 244.708374,163.038284 260.530518,163.044098 
	C259.023987,165.800949 257.049225,168.539108 255.037354,171.622253 
	C244.561111,172.077805 234.121918,172.188354 223.372070,172.566605 
z"/>
<path fill="#0177FF" opacity="1.000000" stroke="none" 
	d="
M213.532166,163.045059 
	C214.757095,167.588165 212.509140,170.151962 208.962250,172.819595 
	C199.682693,179.798782 190.830078,187.346497 181.824112,194.688232 
	C176.979568,198.637543 172.206619,202.675888 167.311859,206.561340 
	C166.369766,207.309174 165.011154,207.532272 163.480225,207.999329 
	C163.081787,207.251923 163.047775,206.502640 163.001755,205.378510 
	C163.137100,191.203476 163.284470,177.403275 163.723846,163.305695 
	C180.365143,163.014191 196.714432,163.020111 213.532166,163.045059 
z"/>
<path fill="#0161FF" opacity="1.000000" stroke="none" 
	d="
M220.865616,290.981079 
	C220.890686,291.178558 220.915741,291.376007 220.987762,291.869202 
	C221.034698,292.164886 220.951126,292.497650 220.880875,292.652069 
	C208.851395,292.845306 196.892166,292.884125 184.471741,292.534485 
	C184.871674,290.835510 185.484192,289.228546 186.635040,288.263519 
	C193.164627,282.788330 199.664520,277.253662 206.496078,272.171539 
	C210.694077,269.048553 215.466446,266.697601 219.986511,264.468628 
	C219.993332,268.078796 219.896698,271.224030 220.017273,274.360962 
	C220.230331,279.903687 220.575653,285.441315 220.865616,290.981079 
z"/>
<path fill="#0183FF" opacity="1.000000" stroke="none" 
	d="
M221.999069,96.473328 
	C210.310791,96.888817 198.623917,96.932129 186.039673,96.974678 
	C183.427902,96.929367 181.713501,96.884819 180.004608,96.490349 
	C181.539337,94.061775 182.724899,91.568886 184.652176,89.970039 
	C200.026291,77.215698 215.696274,64.813232 230.904709,51.867249 
	C234.769089,48.577744 241.190292,46.976810 241.468277,40.036983 
	C247.650864,39.993771 253.365768,39.966534 259.080658,39.939301 
	C259.080658,39.939301 259.065887,39.990627 259.141541,40.209534 
	C259.413391,40.708309 259.675323,40.896965 260.002960,40.994415 
	C260.002960,40.994415 260.009033,40.929615 260.010193,41.399551 
	C259.973999,49.246147 259.936584,56.622814 259.899170,63.999477 
	C259.242706,64.076820 258.379700,63.910915 257.960052,64.267204 
	C248.203049,72.551155 238.513458,80.914543 228.752151,89.193382 
	C227.510468,90.246483 225.706146,90.682419 224.587631,91.821678 
	C223.451233,92.979149 222.841095,94.653275 221.999069,96.473328 
z"/>
<path fill="#3F95EC" opacity="1.000000" stroke="none" 
	d="
M259.931458,64.467361 
	C259.936584,56.622814 259.973999,49.246147 260.042542,41.395855 
	C260.383453,42.292774 260.958771,43.662601 260.962494,45.033985 
	C261.006927,61.401390 260.966431,77.769028 260.842468,94.598854 
	C260.488159,88.496948 260.199188,81.933975 260.007202,75.368156 
	C259.905609,71.893066 259.972778,68.413048 259.931458,64.467361 
z"/>
<path fill="#019AFF" opacity="1.000000" stroke="none" 
	d="
M40.936481,78.996223 
	C40.954929,80.064011 40.973377,81.131805 40.997742,82.600098 
	C40.993393,92.020874 40.983128,101.041138 40.953899,110.529541 
	C37.929695,111.993309 34.924454,112.988945 31.561169,113.991463 
	C31.159267,108.309959 31.115412,102.621567 31.345070,96.194862 
	C31.448875,93.305054 31.279165,91.153549 31.109455,89.002052 
	C31.098482,86.973404 31.087509,84.944756 31.322651,82.468689 
	C31.568762,82.021263 32.016182,82.003876 32.390640,81.997765 
	C35.488888,80.993172 38.212685,79.994698 40.936481,78.996223 
z"/>
<path fill="#1396EB" opacity="1.000000" stroke="none" 
	d="
M31.358574,138.730011 
	C31.076771,136.957932 31.051634,134.914749 31.065807,132.435608 
	C31.275160,134.152756 31.445200,136.305832 31.358574,138.730011 
z"/>
<path fill="#019FFF" opacity="1.000000" stroke="none" 
	d="
M40.954849,78.528214 
	C38.212685,79.994698 35.488888,80.993172 32.384773,81.569031 
	C31.706648,78.765945 31.408844,76.385490 31.111042,74.005035 
	C31.099272,65.980972 31.087503,57.956917 31.319130,49.285057 
	C31.712917,48.091965 31.863314,47.546669 32.013710,47.001373 
	C34.745602,45.670631 37.477489,44.339893 40.570850,43.004150 
	C40.945953,54.686169 40.959587,66.373184 40.954849,78.528214 
z"/>
<path fill="#1396EB" opacity="1.000000" stroke="none" 
	d="
M32.008556,46.640553 
	C31.863314,47.546669 31.712917,48.091965 31.341000,48.816769 
	C31.091896,47.285267 31.064316,45.574253 31.076954,43.438034 
	C31.412586,44.101795 31.707996,45.190765 32.008556,46.640553 
z"/>
<path fill="#2F97E4" opacity="1.000000" stroke="none" 
	d="
M70.010910,40.082993 
	C70.010910,40.082993 69.970947,39.640785 69.947403,39.420036 
	C98.500069,39.132484 127.076271,39.058994 155.652512,39.002983 
	C164.126572,38.986378 172.600739,39.018974 181.537689,39.295872 
	C182.000504,39.562717 181.998306,39.960205 181.530029,39.975662 
	C173.374832,40.011993 165.687927,40.032867 157.532578,40.034988 
	C149.709030,40.028694 142.353928,40.041157 134.530640,40.034996 
	C124.709389,40.028851 115.356331,40.041325 105.534500,40.035095 
	C93.380775,40.038593 81.695847,40.060795 70.010910,40.082993 
z"/>
<path fill="#2E8FE4" opacity="1.000000" stroke="none" 
	d="
M181.998306,39.960205 
	C181.998306,39.960205 182.000504,39.562717 182.002106,39.364010 
	C207.027420,39.099205 232.051147,39.033108 257.540100,38.903252 
	C258.293762,39.042027 258.582153,39.244568 258.975616,39.693199 
	C253.365768,39.966534 247.650864,39.993771 240.999832,40.017845 
	C226.710129,40.028080 213.356567,40.041485 199.535156,40.038437 
	C193.377625,40.001396 187.687973,39.980801 181.998306,39.960205 
z"/>
<path fill="#016CFF" opacity="1.000000" stroke="none" 
	d="
M163.079681,242.468140 
	C166.945404,239.955582 171.074661,238.316940 174.542465,235.775696 
	C180.536560,231.383148 186.135681,226.449234 191.872131,221.708099 
	C199.594391,215.325699 207.265549,208.881180 215.020996,202.539581 
	C216.275452,201.513809 217.852997,200.883209 219.638763,200.503357 
	C219.992279,209.624329 219.988220,218.311859 219.608261,227.004852 
	C216.786423,228.533478 214.164398,229.838959 211.940918,231.637222 
	C209.398178,233.693680 207.595306,237.019302 204.788116,238.321548 
	C198.714905,241.138962 194.429703,245.770859 190.031708,250.436340 
	C189.470581,251.031601 188.722153,251.447662 188.075211,251.965134 
	C182.516464,256.411530 177.090057,261.039124 171.343002,265.226807 
	C168.955063,266.966797 165.884766,267.770355 163.124786,268.999756 
	C163.098373,260.311768 163.071945,251.623810 163.079681,242.468140 
z"/>
<path fill="#0166FF" opacity="1.000000" stroke="none" 
	d="
M219.980896,264.000000 
	C215.466446,266.697601 210.694077,269.048553 206.496078,272.171539 
	C199.664520,277.253662 193.164627,282.788330 186.635040,288.263519 
	C185.484192,289.228546 184.871674,290.835510 184.004303,292.499634 
	C178.907074,292.890930 173.795227,292.657867 168.731277,293.047394 
	C164.244171,293.392578 162.261520,291.978760 163.001404,287.356781 
	C163.181183,286.233887 163.050858,285.061340 163.443756,283.447510 
	C170.905472,277.466431 178.058304,272.038391 185.042252,266.401123 
	C189.652695,262.679688 193.979095,258.608643 198.507523,254.782684 
	C203.643585,250.443344 208.788605,246.107208 214.089691,241.974899 
	C215.791397,240.648392 218.001114,239.973587 219.984619,239.469177 
	C219.987534,247.958481 219.984207,255.979248 219.980896,264.000000 
z"/>
<path fill="#016AFF" opacity="1.000000" stroke="none" 
	d="
M219.978409,239.000610 
	C218.001114,239.973587 215.791397,240.648392 214.089691,241.974899 
	C208.788605,246.107208 203.643585,250.443344 198.507523,254.782684 
	C193.979095,258.608643 189.652695,262.679688 185.042252,266.401123 
	C178.058304,272.038391 170.905472,277.466431 163.473618,282.990967 
	C163.099045,278.641418 163.075256,274.284302 163.088135,269.463470 
	C165.884766,267.770355 168.955063,266.966797 171.343002,265.226807 
	C177.090057,261.039124 182.516464,256.411530 188.075211,251.965134 
	C188.722153,251.447662 189.470581,251.031601 190.031708,250.436340 
	C194.429703,245.770859 198.714905,241.138962 204.788116,238.321548 
	C207.595306,237.019302 209.398178,233.693680 211.940918,231.637222 
	C214.164398,229.838959 216.786423,228.533478 219.613953,227.404800 
	C219.998657,228.865784 220.001770,229.932281 220.002167,231.443039 
	C219.992432,234.258408 219.985413,236.629501 219.978409,239.000610 
z"/>
<path fill="#1396EB" opacity="1.000000" stroke="none" 
	d="
M31.071938,74.448082 
	C31.408844,76.385490 31.706648,78.765945 32.010315,81.575134 
	C32.016182,82.003876 31.568762,82.021263 31.346458,82.034897 
	C31.093716,79.662727 31.063276,77.276924 31.071938,74.448082 
z"/>
<path fill="#1396EB" opacity="1.000000" stroke="none" 
	d="
M31.070431,89.437782 
	C31.279165,91.153549 31.448875,93.305054 31.363506,95.727226 
	C31.082752,93.956436 31.057079,91.914978 31.070431,89.437782 
z"/>
<path fill="#018FFF" opacity="1.000000" stroke="none" 
	d="
M181.530029,39.975662 
	C187.687973,39.980801 193.377625,40.001396 199.568558,40.377483 
	C201.848831,45.405018 197.656281,46.756149 195.266418,48.776882 
	C187.215637,55.584133 178.914032,62.093861 170.748383,68.766373 
	C164.228256,74.094231 157.603348,79.311424 151.337173,84.926193 
	C147.267212,88.573067 143.758072,92.845795 139.544342,96.876450 
	C136.048798,96.941292 133.006592,96.967796 129.742828,97.112823 
	C129.351120,97.514275 129.180954,97.797226 129.010803,98.080170 
	C128.964447,98.266304 128.918091,98.452431 128.707550,98.875191 
	C128.023514,101.458405 127.503639,103.804985 126.972153,106.575584 
	C125.745506,107.403374 124.274124,107.496780 123.353531,108.257088 
	C107.313583,121.504204 91.353966,134.848511 75.331306,148.116669 
	C73.959503,149.252640 72.266579,150.000854 70.372162,150.964630 
	C70.011932,147.636734 70.002365,144.273376 69.982315,140.451202 
	C69.981316,132.640274 69.990791,125.288177 70.374626,117.463287 
	C73.144615,115.372414 75.651649,113.893188 77.898827,112.090103 
	C79.546448,110.768097 80.563194,108.400764 82.357765,107.562141 
	C96.202881,101.092285 105.308884,88.668144 117.365242,79.952393 
	C122.613243,76.158516 126.835258,70.977531 131.857071,66.830795 
	C138.712692,61.169800 145.947937,55.971050 152.897873,50.420639 
	C156.140625,47.830894 160.295258,45.466217 158.001022,40.053741 
	C165.687927,40.032867 173.374832,40.011993 181.530029,39.975662 
z"/>
<path fill="#2C82CD" opacity="1.000000" stroke="none" 
	d="
M129.964386,96.994308 
	C133.006592,96.967796 136.048798,96.941292 140.011597,96.923477 
	C153.954498,96.901527 166.976791,96.870895 179.999100,96.840263 
	C181.713501,96.884819 183.427902,96.929367 185.571152,96.987114 
	C186.000000,97.000305 186.002289,97.416756 186.004166,97.624939 
	C167.633148,97.876328 149.260269,97.919518 130.428894,97.681252 
	C129.970398,97.399788 129.964386,96.994308 129.964386,96.994308 
z"/>
<path fill="#0D7DEE" opacity="1.000000" stroke="none" 
	d="
M129.742828,97.112823 
	C129.964386,96.994308 129.970398,97.399788 129.963486,97.602425 
	C129.956573,97.805061 129.484879,97.946175 129.247833,98.013168 
	C129.180954,97.797226 129.351120,97.514275 129.742828,97.112823 
z"/>
<path fill="#0679F7" opacity="1.000000" stroke="none" 
	d="
M259.950500,40.735489 
	C259.675323,40.896965 259.413391,40.708309 259.115234,40.204765 
	C259.308228,40.146244 259.603119,40.311401 259.950500,40.735489 
z"/>
<path fill="#0193FF" opacity="1.000000" stroke="none" 
	d="
M157.532578,40.034988 
	C160.295258,45.466217 156.140625,47.830894 152.897873,50.420639 
	C145.947937,55.971050 138.712692,61.169800 131.857071,66.830795 
	C126.835258,70.977531 122.613243,76.158516 117.365242,79.952393 
	C105.308884,88.668144 96.202881,101.092285 82.357765,107.562141 
	C80.563194,108.400764 79.546448,110.768097 77.898827,112.090103 
	C75.651649,113.893188 73.144615,115.372414 70.381981,116.994644 
	C70.009682,110.644547 70.004387,104.290291 70.358971,97.432037 
	C73.385262,94.332573 75.904251,91.561195 78.748390,89.177818 
	C84.902504,84.020668 91.238350,79.080956 97.471985,74.017982 
	C105.671867,67.358025 114.044670,60.891075 121.954514,53.901367 
	C126.686485,49.719852 130.675735,44.697834 134.998825,40.053612 
	C142.353928,40.041157 149.709030,40.028694 157.532578,40.034988 
z"/>
<path fill="#0196FF" opacity="1.000000" stroke="none" 
	d="
M134.530640,40.034996 
	C130.675735,44.697834 126.686485,49.719852 121.954514,53.901367 
	C114.044670,60.891075 105.671867,67.358025 97.471985,74.017982 
	C91.238350,79.080956 84.902504,84.020668 78.748390,89.177818 
	C75.904251,91.561195 73.385262,94.332573 70.365952,96.963623 
	C70.005493,92.645363 69.997940,88.291496 69.986290,83.474197 
	C69.992027,79.976196 70.001854,76.941628 70.397934,73.452911 
	C75.324867,70.308136 80.202461,68.049126 84.329041,64.827980 
	C90.886574,59.709286 96.514442,53.311584 103.372108,48.698498 
	C107.475441,45.938229 108.658173,44.046669 106.003281,40.053795 
	C115.356331,40.041325 124.709389,40.028851 134.530640,40.034996 
z"/>
<path fill="#019AFF" opacity="1.000000" stroke="none" 
	d="
M105.534500,40.035095 
	C108.658173,44.046669 107.475441,45.938229 103.372108,48.698498 
	C96.514442,53.311584 90.886574,59.709286 84.329041,64.827980 
	C80.202461,68.049126 75.324867,70.308136 70.403976,72.998627 
	C70.019402,62.332970 70.015038,51.667461 70.010788,40.542477 
	C81.695847,40.060795 93.380775,40.038593 105.534500,40.035095 
z"/>
<path fill="#0B61ED" opacity="1.000000" stroke="none" 
	d="
M219.984619,239.469177 
	C219.985413,236.629501 219.992432,234.258408 220.225998,231.446136 
	C220.452545,231.004990 220.900223,231.016708 220.900223,231.016708 
	C220.920715,250.695541 220.941208,270.374359 220.913666,290.517151 
	C220.575653,285.441315 220.230331,279.903687 220.017273,274.360962 
	C219.896698,271.224030 219.993332,268.078796 219.986511,264.468628 
	C219.984207,255.979248 219.987534,247.958481 219.984619,239.469177 
z"/>
<path fill="#0F6CE6" opacity="1.000000" stroke="none" 
	d="
M220.937088,230.547562 
	C220.900223,231.016708 220.452545,231.004990 220.228714,231.001892 
	C220.001770,229.932281 219.998657,228.865784 219.989838,227.399338 
	C219.988220,218.311859 219.992279,209.624329 219.990814,200.468094 
	C220.118057,191.531036 220.250824,183.062668 220.670990,174.293335 
	C220.963577,192.687698 220.968765,211.383057 220.937088,230.547562 
z"/>
<path fill="#0F6CE6" opacity="1.000000" stroke="none" 
	d="
M221.178070,173.964203 
	C221.199371,173.693817 221.416321,173.435898 221.879242,173.099747 
	C222.071442,173.190140 222.017670,173.358749 221.863754,173.773132 
	C221.763596,174.018906 221.373749,173.976639 221.178070,173.964203 
z"/>
<path fill="#0188FF" opacity="1.000000" stroke="none" 
	d="
M180.004608,96.490349 
	C166.976791,96.870895 153.954498,96.901527 140.464935,96.885132 
	C143.758072,92.845795 147.267212,88.573067 151.337173,84.926193 
	C157.603348,79.311424 164.228256,74.094231 170.748383,68.766373 
	C178.914032,62.093861 187.215637,55.584133 195.266418,48.776882 
	C197.656281,46.756149 201.848831,45.405018 200.036407,40.393932 
	C213.356567,40.041485 226.710129,40.028080 240.532135,40.033821 
	C241.190292,46.976810 234.769089,48.577744 230.904709,51.867249 
	C215.696274,64.813232 200.026291,77.215698 184.652176,89.970039 
	C182.724899,91.568886 181.539337,94.061775 180.004608,96.490349 
z"/>
</svg>